<?xml version="1.0" encoding="UTF-8"?>
<svg id="Layer_2" data-name="Layer 2" xmlns="http://www.w3.org/2000/svg" viewBox="0 0 381 381">
  <defs>
    <style>
      .cls-1, .cls-2 {
        stroke-width: 0px;
      }

      .cls-2 {
        fill: #fff;
      }
    </style>
  </defs>
  <g id="Layer_2-2" data-name="Layer 2">
    <g>
      <rect class="cls-1" x="0" y="0" width="381" height="381" rx="190.5" ry="190.5"/>
      <g>
        <path class="cls-2" d="M47.38,131.44h0c7.4,0,13.4,6,13.4,13.4v71.74c0,7.4-6,13.4-13.4,13.4h0v-98.54h0Z"/>
        <path class="cls-2" d="M109.45,180.71c0,19.7-9.09,37.28-23.31,48.76-10.75,8.7-24.44,13.91-39.36,13.91h0c0-6.98,4.73-13.13,11.51-14.75,8.21-1.97,15.62-5.99,21.66-11.49,9.89-9.01,16.1-21.99,16.1-36.43s-6.21-27.42-16.1-36.43c-6.04-5.5-13.45-9.52-21.66-11.49-6.78-1.63-11.51-7.78-11.51-14.75h0c14.92,0,28.61,5.21,39.36,13.91,14.22,11.48,23.31,29.06,23.31,48.76Z"/>
        <g>
          <path class="cls-2" d="M139.82,175.37c7.23,0,12.89,2.14,17,6.41,4.11,4.27,6.16,11.26,6.16,20.95h-40.54l-.25-2.34h25.26c.08-4.02-.17-7.74-.74-11.15-.58-3.41-1.48-6.14-2.71-8.19-1.23-2.05-2.88-3.08-4.93-3.08-2.88,0-5.32,1.81-7.33,5.42-2.01,3.61-3.23,9.61-3.63,17.99l.37.74c-.08.99-.14,2.01-.19,3.08-.04,1.07-.06,2.18-.06,3.33,0,5.67.8,10.27,2.4,13.8,1.6,3.53,3.63,6.1,6.1,7.7,2.46,1.6,4.97,2.4,7.52,2.4,1.73,0,3.51-.27,5.36-.8s3.71-1.52,5.61-2.96c1.89-1.44,3.65-3.47,5.3-6.1l2.22.74c-.99,3.12-2.55,6.16-4.68,9.12-2.14,2.96-4.85,5.38-8.13,7.27-3.29,1.89-7.23,2.83-11.83,2.83-5.59,0-10.52-1.19-14.79-3.57-4.27-2.38-7.62-6-10.04-10.84-2.42-4.85-3.63-11.01-3.63-18.48s1.29-14,3.88-19.1c2.59-5.09,6.16-8.89,10.72-11.4,4.56-2.51,9.75-3.76,15.59-3.76Z"/>
          <path class="cls-2" d="M188.64,136.89c3.45,0,6.47.69,9.06,2.05,2.59,1.37,4.46,2.7,5.61,4,2.79,3,4.52,1.04,5.18-5.86h2.59c-.17,3.65-.29,8.11-.37,13.39-.08,5.27-.12,12.28-.12,21.01h-2.59c-.41-4.82-1.19-9.58-2.34-14.27-1.15-4.69-2.81-8.53-4.99-11.53-2.18-2.99-4.99-4.49-8.44-4.49-2.38,0-4.4,1.07-6.04,3.22-1.64,2.15-2.46,5.24-2.46,9.28s.74,7.33,2.22,10.26,3.39,5.73,5.73,8.4,4.78,5.5,7.33,8.5c2.71,3.26,5.17,6.48,7.39,9.67,2.22,3.19,3.98,6.68,5.3,10.45,1.31,3.78,1.97,8.27,1.97,13.48,0,5.86-1.07,10.98-3.2,15.34-2.14,4.36-4.95,7.72-8.44,10.06-3.49,2.34-7.37,3.52-11.64,3.52-2.46,0-4.66-.39-6.59-1.17-1.93-.78-3.59-1.76-4.99-2.93-1.07-.78-2.08-1.53-3.02-2.25-.94-.71-1.83-1.33-2.65-1.86-.82-.39-1.54.07-2.16,1.37-.62,1.3-1.09,3.13-1.42,5.47h-2.59c.16-4.17.29-9.25.37-15.24.08-5.99.12-13.94.12-23.84h2.59c.49,7.03,1.4,13.26,2.71,18.66,1.31,5.41,3.1,9.64,5.36,12.7,2.26,3.06,5.11,4.59,8.56,4.59,1.4,0,2.75-.46,4.07-1.37,1.31-.91,2.4-2.41,3.27-4.49.86-2.08,1.29-4.75,1.29-8.01,0-5.73-1.17-10.48-3.51-14.26-2.34-3.78-5.32-7.88-8.93-12.31-2.63-3.39-5.11-6.74-7.45-10.06-2.34-3.32-4.25-6.97-5.73-10.94-1.48-3.97-2.22-8.5-2.22-13.58,0-5.86.99-10.81,2.96-14.85,1.97-4.04,4.58-7.06,7.82-9.09,3.24-2.02,6.71-3.03,10.41-3.03Z"/>
          <path class="cls-2" d="M238.35,157.75v20.21h14.54v2.46h-14.54v49.78c0,2.46.45,4.21,1.35,5.24.9,1.03,2.26,1.54,4.07,1.54,1.48,0,2.96-.55,4.44-1.66,1.48-1.11,2.79-3.02,3.94-5.73l2.09,1.11c-1.31,3.7-3.31,6.74-5.98,9.12s-6.3,3.57-10.9,3.57c-2.71,0-5.09-.35-7.15-1.05-2.05-.7-3.78-1.74-5.18-3.14-1.81-1.81-3-4.05-3.57-6.71-.58-2.67-.86-6.14-.86-10.41v-41.64h-10.35v-2.46h10.35v-16.26c3.45,0,6.63-.31,9.55-.92,2.91-.62,5.65-1.62,8.19-3.02Z"/>
          <path class="cls-2" d="M257.04,212.75v-33.69l-33.21-55.95h21.48l15.16,27.91c1.56,2.81,2.95,5.6,4.15,8.36,1.2,2.77,2.44,6.08,3.73,9.93h-4.03c1.24-3.89,2.45-7.22,3.61-9.99,1.16-2.77,2.49-5.53,3.97-8.3l14.68-27.91h21.42l-32.67,55.95v62.59l-18.29-28.91Z"/>
          <path class="cls-2" d="M325.92,176.23c3.45,0,6.26.43,8.44,1.3,2.18.86,3.88,2.03,5.11,3.51,1.31,1.56,2.28,3.57,2.89,6.04.62,2.46.92,5.79.92,9.98v33.14c0,3.45.59,5.79,1.79,7.02,1.19,1.23,3.22,1.85,6.1,1.85v2.59c-1.56-.08-3.9-.18-7.02-.31-3.12-.12-6.2-.18-9.24-.18s-6.18.06-9.18.18c-3,.12-5.28.23-6.84.31v-2.59c2.47,0,4.19-.62,5.18-1.85s1.48-3.57,1.48-7.02v-38.32c0-2.05-.21-3.84-.62-5.36-.41-1.52-1.15-2.71-2.22-3.57-1.07-.86-2.67-1.29-4.81-1.29s-4.25.62-6.1,1.85c-1.85,1.23-3.33,2.94-4.44,5.11-1.11,2.18-1.66,4.62-1.66,7.33v34.25c0,3.45.51,5.79,1.54,7.02,1.03,1.23,2.73,1.85,5.11,1.85v2.59c-1.48-.08-3.63-.18-6.47-.31s-5.77-.18-8.81-.18-6.33.06-9.61.18c-3.29.12-5.75.23-7.39.31v-2.59c2.87,0,4.91-.62,6.1-1.85,1.19-1.23,1.79-3.57,1.79-7.02v-38.81c0-3.7-.55-6.43-1.66-8.19-1.11-1.76-3.18-2.65-6.22-2.65v-2.59c2.63.25,5.17.37,7.64.37,3.45,0,6.67-.14,9.67-.43,3-.29,5.77-.72,8.32-1.29v11.09c2.05-4.19,4.85-7.15,8.38-8.87,3.53-1.72,7.47-2.59,11.83-2.59Z"/>
        </g>
      </g>
    </g>
  </g>
</svg>